<?xml version="1.0" encoding="UTF-8" standalone="no"?>
<svg
   xmlns:dc="http://purl.org/dc/elements/1.1/"
   xmlns:cc="http://creativecommons.org/ns#"
   xmlns:rdf="http://www.w3.org/1999/02/22-rdf-syntax-ns#"
   xmlns:svg="http://www.w3.org/2000/svg"
   xmlns="http://www.w3.org/2000/svg"
   xmlns:sodipodi="http://sodipodi.sourceforge.net/DTD/sodipodi-0.dtd"
   xmlns:inkscape="http://www.inkscape.org/namespaces/inkscape"
   version="1.0"
   width="294.000000pt"
   height="292.000000pt"
   viewBox="0 0 294.000000 292.000000"
   preserveAspectRatio="xMidYMid meet"
   id="svg817"
   sodipodi:docname="lock.svg"
   inkscape:version="0.92.4 (5da689c313, 2019-01-14)">
  <metadata
     id="metadata823">
    <rdf:RDF>
      <cc:Work
         rdf:about="">
        <dc:format>image/svg+xml</dc:format>
        <dc:type
           rdf:resource="http://purl.org/dc/dcmitype/StillImage" />
      </cc:Work>
    </rdf:RDF>
  </metadata>
  <defs
     id="defs821" />
  <sodipodi:namedview
     pagecolor="#ffffff"
     bordercolor="#666666"
     borderopacity="1"
     objecttolerance="10"
     gridtolerance="10"
     guidetolerance="10"
     inkscape:pageopacity="0"
     inkscape:pageshadow="2"
     inkscape:window-width="1596"
     inkscape:window-height="845"
     id="namedview819"
     showgrid="false"
     inkscape:zoom="1.2150371"
     inkscape:cx="157.32225"
     inkscape:cy="188.23768"
     inkscape:window-x="0"
     inkscape:window-y="26"
     inkscape:window-maximized="0"
     inkscape:current-layer="g885" />
  <g
     transform="matrix(0.07071068,-0.07071068,-0.07071068,-0.07071068,150.75615,354.46684)"
     id="g885"
     style="fill:#000000;stroke:none">
    <path
       d="M 1400,2749 C 1117,2725 860,2606 648,2402 362,2125 227,1762 269,1377 319,922 582,559 1006,363 c 312,-144 735,-134 1048,23 138,69 231,139 351,259 166,169 264,343 323,574 24,96 27,123 26,281 -1,200 -18,296 -80,453 -66,167 -141,284 -268,416 -266,277 -624,412 -1006,380 z m 258,-644 c 108,-59 174,-166 174,-285 1,-59 -4,-80 -31,-134 -17,-35 -50,-81 -73,-101 l -41,-37 c 18.5654,-187.7196 106.5909,-624.94944 136.6853,-666.94423 0,0 -12.6979,-8.30368 -312.6853,-11.05577 -252.3147,-2.31474 -321,3 -320,13 54.2289,51.61066 89.8993,412.2364 146,662 l -43,38 c -91,80 -128,233 -85,348 35,91 105,160 200,196 23,8 66,12 116,10 66,-3 90,-8 133,-32 z"
       id="path883"
       inkscape:connector-curvature="0"
       sodipodi:nodetypes="cccccccccccccccccsccccccc"
       style="fill:#0086be;fill-opacity:0.93627453" />
  </g>
</svg>
